<?xml version="1.0" encoding="UTF-8"?>
<svg viewBox="0 0 1600 900" xmlns="http://www.w3.org/2000/svg" width="100%" height="100%" preserveAspectRatio="xMidYMid meet">
  <defs>
    <linearGradient id="bgGrad" x1="0%" y1="0%" x2="100%" y2="100%">
      <stop offset="0%" stop-color="#062451"/>
      <stop offset="45%" stop-color="#083E78"/>
      <stop offset="100%" stop-color="#0a4d92"/>
    </linearGradient>
    <radialGradient id="titleGlow" cx="32%" cy="42%" r="50%">
      <stop offset="0%" stop-color="#28B8A0" stop-opacity="0.20"/>
      <stop offset="55%" stop-color="#22C0E0" stop-opacity="0.07"/>
      <stop offset="100%" stop-color="#000000" stop-opacity="0"/>
    </radialGradient>
    <radialGradient id="cardGlow" cx="75%" cy="40%" r="45%">
      <stop offset="0%" stop-color="#22C0E0" stop-opacity="0.12"/>
      <stop offset="100%" stop-color="#000000" stop-opacity="0"/>
    </radialGradient>
    <pattern id="grid" width="60" height="60" patternUnits="userSpaceOnUse">
      <path d="M60 0L0 0 0 60" fill="none" stroke="#22C0E0" stroke-width="0.5" stroke-opacity="0.10"/>
    </pattern>
    <linearGradient id="accentLine" x1="0%" y1="0%" x2="100%" y2="0%">
      <stop offset="0%" stop-color="#28B8A0" stop-opacity="0"/>
      <stop offset="50%" stop-color="#28B8A0" stop-opacity="1"/>
      <stop offset="100%" stop-color="#28B8A0" stop-opacity="0"/>
    </linearGradient>
    <linearGradient id="leap" x1="0%" y1="100%" x2="100%" y2="0%">
      <stop offset="0%" stop-color="#28B8A0" stop-opacity="0"/>
      <stop offset="55%" stop-color="#28B8A0" stop-opacity="0.45"/>
      <stop offset="100%" stop-color="#22C0E0" stop-opacity="0"/>
    </linearGradient>
    <linearGradient id="leap2" x1="0%" y1="100%" x2="100%" y2="0%">
      <stop offset="0%" stop-color="#22C0E0" stop-opacity="0"/>
      <stop offset="55%" stop-color="#22C0E0" stop-opacity="0.30"/>
      <stop offset="100%" stop-color="#28B8A0" stop-opacity="0"/>
    </linearGradient>
    <linearGradient id="ctaGrad" x1="0%" y1="0%" x2="100%" y2="0%">
      <stop offset="0%" stop-color="#28B8A0"/>
      <stop offset="100%" stop-color="#22C0E0"/>
    </linearGradient>
    <linearGradient id="ctaShine" x1="0%" y1="0%" x2="0%" y2="100%">
      <stop offset="0%" stop-color="#FFFFFF" stop-opacity="0.28"/>
      <stop offset="100%" stop-color="#FFFFFF" stop-opacity="0"/>
    </linearGradient>
    <linearGradient id="titleGrad" x1="0%" y1="0%" x2="100%" y2="0%">
      <stop offset="0%" stop-color="#28B8A0"/>
      <stop offset="100%" stop-color="#22C0E0"/>
    </linearGradient>
    <linearGradient id="warmGrad" x1="0%" y1="0%" x2="100%" y2="100%">
      <stop offset="0%" stop-color="#FF7A45"/>
      <stop offset="100%" stop-color="#FFB35C"/>
    </linearGradient>
    <style>
      @import url('https://fonts.googleapis.com/css2?family=Noto+Sans+SC:wght@400;500;700;900&amp;display=swap');
      .ff { font-family: 'Noto Sans SC', system-ui, sans-serif; }
    </style>
  </defs>

  <!-- 背景层 -->
  <rect width="1600" height="900" fill="url(#bgGrad)"/>
  <rect width="1600" height="900" fill="url(#grid)"/>
  <rect width="1600" height="900" fill="url(#titleGlow)"/>
  <rect width="1600" height="900" fill="url(#cardGlow)"/>

  <!-- 鲸跃大弧线 -->
  <path d="M 180 860 Q 820 480, 1480 90" fill="none" stroke="url(#leap)" stroke-width="100" stroke-linecap="round" opacity="0.16"/>
  <path d="M 260 880 Q 900 520, 1540 170" fill="none" stroke="url(#leap2)" stroke-width="26" stroke-linecap="round" opacity="0.25"/>

  <!-- 装饰粒子 -->
  <g>
    <circle cx="1180" cy="120" r="2.5" fill="#28B8A0" opacity="0.7"/>
    <circle cx="1320" cy="220" r="2" fill="#22C0E0" opacity="0.6"/>
    <circle cx="1480" cy="150" r="2" fill="#28B8A0" opacity="0.7"/>
    <circle cx="1560" cy="330" r="2" fill="#22C0E0" opacity="0.5"/>
    <circle cx="1060" cy="760" r="2" fill="#22C0E0" opacity="0.5"/>
    <circle cx="1550" cy="780" r="1.5" fill="#28B8A0" opacity="0.5"/>
    <circle cx="200" cy="200" r="2" fill="#22C0E0" opacity="0.5"/>
    <circle cx="90" cy="420" r="1.5" fill="#28B8A0" opacity="0.4"/>
    <circle cx="760" cy="120" r="1" fill="#FFFFFF" opacity="0.4"/>
    <circle cx="900" cy="180" r="1.5" fill="#22C0E0" opacity="0.5"/>
  </g>

  <!-- 顶部品牌区 -->
  <g transform="translate(80, 80)">
    <line x1="0" y1="0" x2="56" y2="0" stroke="#28B8A0" stroke-width="3"/>
    <text x="0" y="42" class="ff" font-weight="700" font-size="34" fill="#FFFFFF" letter-spacing="8">百鲸咨询</text>
    <text x="0" y="74" class="ff" font-weight="500" font-size="15" fill="#28B8A0" letter-spacing="5" opacity="0.9">BAIJING · 12 YEARS FOCUS</text>
  </g>

  <!-- 右上角装饰 -->
  <g transform="translate(1520, 96)" text-anchor="end">
    <text x="0" y="0" class="ff" font-weight="500" font-size="13" fill="#FFFFFF" opacity="0.55" letter-spacing="2">2026</text>
    <line x1="-30" y1="14" x2="0" y2="14" stroke="#28B8A0" stroke-width="1" opacity="0.5"/>
    <text x="0" y="42" class="ff" font-weight="500" font-size="13" fill="#FFFFFF" opacity="0.5" letter-spacing="3">ENTERPRISE</text>
    <text x="0" y="60" class="ff" font-weight="500" font-size="13" fill="#FFFFFF" opacity="0.5" letter-spacing="3">DIAGNOSIS</text>
  </g>

  <!-- 标签 pill -->
  <g transform="translate(80, 192)">
    <rect width="240" height="48" rx="24" fill="#28B8A0" fill-opacity="0.14" stroke="#28B8A0" stroke-width="1.2"/>
    <circle cx="30" cy="24" r="5" fill="#28B8A0"/>
    <text x="132" y="32" text-anchor="middle" class="ff" font-weight="500" font-size="20" fill="#4FE3C8" letter-spacing="2">企业诊断 · 免费自测</text>
  </g>

  <!-- 主标题：小字引导 + 大字点睛 -->
  <g transform="translate(78, 332)">
    <text x="0" y="0" class="ff" font-weight="700" font-size="76" fill="#FFFFFF" letter-spacing="4">你的企业，</text>
  </g>
  <g transform="translate(76, 460)">
    <text x="0" y="0" class="ff" font-weight="900" font-size="104" fill="url(#titleGrad)" letter-spacing="2">卡在哪一步？</text>
  </g>

  <!-- 副标题 -->
  <g transform="translate(80, 522)">
    <text class="ff" font-weight="700" font-size="30" fill="#22C0E0" letter-spacing="3">3 个数字，秒懂企业现状</text>
  </g>

  <!-- 痛点标签 2 行 x 3 -->
  <g transform="translate(80, 574)">
    <g transform="translate(0, 0)">
      <rect width="220" height="52" rx="26" fill="#FF8A5B" fill-opacity="0.10" stroke="#FF8A5B" stroke-width="1.2" stroke-opacity="0.45"/>
      <circle cx="42" cy="26" r="5" fill="#FF8A5B"/>
      <text x="118" y="33" text-anchor="middle" class="ff" font-weight="500" font-size="20" fill="#FFE3D5" letter-spacing="1">成本居高不下</text>
    </g>
    <g transform="translate(234, 0)">
      <rect width="220" height="52" rx="26" fill="#FF8A5B" fill-opacity="0.10" stroke="#FF8A5B" stroke-width="1.2" stroke-opacity="0.45"/>
      <circle cx="42" cy="26" r="5" fill="#FF8A5B"/>
      <text x="118" y="33" text-anchor="middle" class="ff" font-weight="500" font-size="20" fill="#FFE3D5" letter-spacing="1">团队效率低下</text>
    </g>
    <g transform="translate(468, 0)">
      <rect width="220" height="52" rx="26" fill="#FF8A5B" fill-opacity="0.10" stroke="#FF8A5B" stroke-width="1.2" stroke-opacity="0.45"/>
      <circle cx="42" cy="26" r="5" fill="#FF8A5B"/>
      <text x="118" y="33" text-anchor="middle" class="ff" font-weight="500" font-size="20" fill="#FFE3D5" letter-spacing="1">员工相互推责</text>
    </g>

    <g transform="translate(0, 66)">
      <rect width="220" height="52" rx="26" fill="#FF8A5B" fill-opacity="0.10" stroke="#FF8A5B" stroke-width="1.2" stroke-opacity="0.45"/>
      <circle cx="42" cy="26" r="5" fill="#FF8A5B"/>
      <text x="118" y="33" text-anchor="middle" class="ff" font-weight="500" font-size="20" fill="#FFE3D5" letter-spacing="1">人才流失严重</text>
    </g>
    <g transform="translate(234, 66)">
      <rect width="220" height="52" rx="26" fill="#FF8A5B" fill-opacity="0.10" stroke="#FF8A5B" stroke-width="1.2" stroke-opacity="0.45"/>
      <circle cx="42" cy="26" r="5" fill="#FF8A5B"/>
      <text x="118" y="33" text-anchor="middle" class="ff" font-weight="500" font-size="20" fill="#FFE3D5" letter-spacing="1">战略方向模糊</text>
    </g>
    <g transform="translate(468, 66)">
      <rect width="220" height="52" rx="26" fill="#FF8A5B" fill-opacity="0.10" stroke="#FF8A5B" stroke-width="1.2" stroke-opacity="0.45"/>
      <circle cx="42" cy="26" r="5" fill="#FF8A5B"/>
      <text x="118" y="33" text-anchor="middle" class="ff" font-weight="500" font-size="20" fill="#FFE3D5" letter-spacing="1">利润增长乏力</text>
    </g>
  </g>

  <!-- CTA 按钮 -->
  <g transform="translate(80, 732)">
    <rect width="292" height="64" rx="32" fill="url(#ctaGrad)"/>
    <rect width="292" height="64" rx="32" fill="url(#ctaShine)"/>
    <text x="146" y="42" text-anchor="middle" class="ff" font-weight="700" font-size="25" fill="#062451" letter-spacing="2">免费企业诊断  →</text>
  </g>

  <!-- 域名 -->
  <g transform="translate(80, 838)">
    <text x="0" y="0" class="ff" font-weight="500" font-size="15" fill="#FFFFFF" opacity="0.5" letter-spacing="3">BAIJINGZIXUN.TOP</text>
  </g>

  <!-- 右侧诊断仪表盘卡片 -->
  <g transform="translate(1100, 140)">
    <rect width="420" height="600" rx="30" fill="#FFFFFF" fill-opacity="0.06" stroke="#22C0E0" stroke-width="1" stroke-opacity="0.28"/>

    <text x="210" y="54" text-anchor="middle" class="ff" font-weight="700" font-size="28" fill="#FFFFFF" letter-spacing="3">企业健康诊断</text>

    <!-- 环形仪表盘 -->
    <g transform="translate(210, 205)">
      <circle cx="0" cy="0" r="82" fill="none" stroke="#FFFFFF" stroke-opacity="0.10" stroke-width="18"/>
      <circle cx="0" cy="0" r="82" fill="none" stroke="url(#warmGrad)" stroke-width="18" stroke-linecap="round"
              stroke-dasharray="319.4 515.2" transform="rotate(-90)"/>
      <text x="0" y="-12" text-anchor="middle" class="ff" font-weight="900" font-size="62" fill="#FFFFFF" letter-spacing="-1">62</text>
      <text x="0" y="24" text-anchor="middle" class="ff" font-weight="500" font-size="18" fill="#FFB088" letter-spacing="2">综合健康度</text>
    </g>

    <text x="210" y="314" text-anchor="middle" class="ff" font-weight="500" font-size="15" fill="#FF8A5B" letter-spacing="1">偏低 · 存在明显短板</text>

    <line x1="36" y1="338" x2="384" y2="338" stroke="#22C0E0" stroke-width="0.6" stroke-opacity="0.25"/>

    <!-- 指标条 -->
    <g transform="translate(0, 360)">
      <g>
        <text x="36" y="20" class="ff" font-weight="500" font-size="18" fill="#FFFFFF" fill-opacity="0.85">成本控制</text>
        <rect x="150" y="6" width="192" height="14" rx="7" fill="#FFFFFF" fill-opacity="0.10"/>
        <rect x="150" y="6" width="81" height="14" rx="7" fill="#FF8A5B"/>
        <text x="366" y="20" text-anchor="end" class="ff" font-weight="700" font-size="18" fill="#FF8A5B">42</text>
      </g>
      <g transform="translate(0, 44)">
        <text x="36" y="20" class="ff" font-weight="500" font-size="18" fill="#FFFFFF" fill-opacity="0.85">团队效率</text>
        <rect x="150" y="6" width="192" height="14" rx="7" fill="#FFFFFF" fill-opacity="0.10"/>
        <rect x="150" y="6" width="106" height="14" rx="7" fill="#28B8A0"/>
        <text x="366" y="20" text-anchor="end" class="ff" font-weight="700" font-size="18" fill="#28B8A0">55</text>
      </g>
      <g transform="translate(0, 88)">
        <text x="36" y="20" class="ff" font-weight="500" font-size="18" fill="#FFFFFF" fill-opacity="0.85">责任清晰</text>
        <rect x="150" y="6" width="192" height="14" rx="7" fill="#FFFFFF" fill-opacity="0.10"/>
        <rect x="150" y="6" width="73" height="14" rx="7" fill="#FF8A5B"/>
        <text x="366" y="20" text-anchor="end" class="ff" font-weight="700" font-size="18" fill="#FF8A5B">38</text>
      </g>
      <g transform="translate(0, 132)">
        <text x="36" y="20" class="ff" font-weight="500" font-size="18" fill="#FFFFFF" fill-opacity="0.85">人才稳定</text>
        <rect x="150" y="6" width="192" height="14" rx="7" fill="#FFFFFF" fill-opacity="0.10"/>
        <rect x="150" y="6" width="92" height="14" rx="7" fill="#FF8A5B"/>
        <text x="366" y="20" text-anchor="end" class="ff" font-weight="700" font-size="18" fill="#FF8A5B">48</text>
      </g>
      <g transform="translate(0, 176)">
        <text x="36" y="20" class="ff" font-weight="500" font-size="18" fill="#FFFFFF" fill-opacity="0.85">战略聚焦</text>
        <rect x="150" y="6" width="192" height="14" rx="7" fill="#FFFFFF" fill-opacity="0.10"/>
        <rect x="150" y="6" width="115" height="14" rx="7" fill="#28B8A0"/>
        <text x="366" y="20" text-anchor="end" class="ff" font-weight="700" font-size="18" fill="#28B8A0">60</text>
      </g>
    </g>

    <g transform="translate(0, 570)">
      <text x="210" y="0" text-anchor="middle" class="ff" font-weight="400" font-size="15" fill="#FFFFFF" fill-opacity="0.5" letter-spacing="1">数据仅用于诊断 · 不会保存</text>
    </g>
  </g>

  <!-- 底部装饰线 -->
  <g transform="translate(80, 868)">
    <line x1="0" y1="0" x2="40" y2="0" stroke="#28B8A0" stroke-width="2" opacity="0.7"/>
  </g>
</svg>
